<svg xmlns="http://www.w3.org/2000/svg" width="758" height="220" viewBox="0 0 758 220">
  <path fill="#FFFFFF" fill-rule="evenodd" d="M127.4,48.8 C127.4,56.13337 126.166679,63.233299 123.7,70.1 C121.233321,76.966701 117.866688,83.06664 113.6,88.4 C109.333312,93.73336 104.366695,98.033317 98.7,101.3 C93.033305,104.566683 87.000032,106.2 80.6,106.2 C78.999992,106.2 77.400008,105.766671 75.8,104.9 C74.199992,104.033329 72.533342,103.066672 70.8,102 L69.8,101.4 C69.533332,104.600016 69.233335,108.499977 68.9,113.1 C68.566665,117.700023 68.4,122.799972 68.4,128.4 L68.4,130.8 C68.4,131.46667 68.433333,132.066664 68.5,132.6 C68.566667,133.133336 68.6,133.666664 68.6,134.2 L68.6,136.4 C68.6,137.866674 68.966663,139.333326 69.7,140.8 C70.433337,142.266674 70.8,143.133332 70.8,143.4 C70.8,144.600006 70.000008,145.299999 68.4,145.5 C66.799992,145.700001 65.800002,145.8 65.4,145.8 C61.933316,145.8 59.233343,145.266672 57.3,144.2 C55.366657,143.133328 53.933338,140.866684 53,137.4 C52.066662,133.933316 51.500001,128.900033 51.3,122.3 C51.099999,115.699967 51,106.933388 51,96 C51,86.799954 51.199998,77.933376 51.6,69.4 C52.000002,60.866624 52.499997,53.100035 53.1,46.1 C53.700003,39.099965 54.299997,33.033359 54.9,27.9 C55.500003,22.766641 55.999998,18.933346 56.4,16.4 C54.799992,16.666668 52.700013,17.233329 50.1,18.1 C47.499987,18.966671 44.733348,19.999994 41.8,21.2 C38.866652,22.400006 35.866682,23.799992 32.8,25.4 C29.733318,27.000008 26.966679,28.666658 24.5,30.4 C22.033321,32.133342 20.033341,33.899991 18.5,35.7 C16.966659,37.500009 16.2,39.266658 16.2,41 L19.6,52.2 C19.6,53.266672 19.400002,54.633325 19,56.3 C18.599998,57.966675 17.466676,58.8 15.6,58.8 C12.93332,58.8 10.633343,58.300005 8.7,57.3 C6.766657,56.299995 5.166673,55.033341 3.9,53.5 C2.633327,51.966659 1.66667,50.333342 1,48.6 C0.33333,46.866658 0,45.266674 0,43.8 C0,39.666646 1.433319,35.800018 4.3,32.2 C7.166681,28.599982 10.899977,25.333348 15.5,22.4 C20.100023,19.466652 25.333304,16.800012 31.2,14.4 C37.066696,11.999988 42.99997,10.000008 49,8.4 C55.00003,6.799992 60.766639,5.566671 66.3,4.7 C71.833361,3.833329 76.59998,3.4 80.6,3.4 C85.26669,3.4 89.899977,3.699997 94.5,4.3 C99.100023,4.900003 103.666644,6.333322 108.2,8.6 C113.000024,11.000012 116.699987,14.333312 119.3,18.6 C121.900013,22.866688 123.799994,27.133312 125,31.4 C126.200006,35.666688 126.899999,39.46665 127.1,42.8 C127.300001,46.13335 127.4,48.13333 127.4,48.8 Z M113.4,40.2 C113.4,33.933302 111.966681,29.033351 109.1,25.5 C106.233319,21.966649 102.700021,19.333342 98.5,17.6 C94.299979,15.866658 89.86669,14.833335 85.2,14.5 C80.53331,14.166665 76.333352,14 72.6,14 C71.799996,14 70.433343,14.099999 68.5,14.3 C66.566657,14.500001 64.066682,14.866664 61,15.4 C65.400022,16.466672 68.533324,17.933324 70.4,19.8 C72.266676,21.666676 73.133334,23.333326 73,24.8 L70.8,81.4 C70.8,86.06669 71.199996,89.533322 72,91.8 C72.800004,94.066678 75.066648,95.2 78.8,95.2 C82.400018,95.2 86.233313,93.233353 90.3,89.3 C94.366687,85.366647 98.099983,80.566695 101.5,74.9 C104.900017,69.233305 107.733322,63.233365 110,56.9 C112.266678,50.566635 113.4,45.000024 113.4,40.2 Z M214.4,106.6 C214.266666,108.466676 213.700005,111.099983 212.7,114.5 C211.699995,117.900017 210.233343,121.233317 208.3,124.5 C206.366657,127.766683 203.900015,130.633321 200.9,133.1 C197.899985,135.566679 194.266688,136.8 190,136.8 C185.866646,136.8 182.566679,135.600012 180.1,133.2 C177.633321,130.799988 175.766673,127.500021 174.5,123.3 C173.233327,119.099979 172.433335,114.066696 172.1,108.2 C171.766665,102.333304 171.6,95.933368 171.6,89 L171.6,84.5 C171.6,82.699991 171.666666,81.13334 171.8,79.8 C170.199992,82.733348 168.600008,86.433311 167,90.9 C165.399992,95.366689 163.966673,100.133308 162.7,105.2 C161.433327,110.266692 160.400004,115.433307 159.6,120.7 C158.799996,125.966693 158.333334,130.93331 158.2,135.6 C156.86666,135.866668 155.433341,136.199998 153.9,136.6 C152.366659,137.000002 150.60001,137.2 148.6,137.2 C147.799996,137.2 146.866672,137.133334 145.8,137 C144.733328,136.866666 143.666672,136.600002 142.6,136.2 C141.533328,135.799998 140.633337,135.233337 139.9,134.5 C139.166663,133.766663 138.8,132.800006 138.8,131.6 C138.8,131.333332 139.033331,130.733338 139.5,129.8 C139.966669,128.866662 140.2,127.000014 140.2,124.2 L140.2,9.2 C140.2,7.333324 139.966669,6.06667 139.5,5.4 C139.033331,4.73333 138.8,3.933338 138.8,3 C138.8,2.466664 139.266662,2.033335 140.2,1.7 C141.133338,1.366665 142.199994,1.100001 143.4,0.9 C144.600006,0.699999 145.833327,0.566667 147.1,0.5 C148.366673,0.433333 149.399996,0.4 150.2,0.4 C153.666684,0.4 157.199982,1.133326 160.8,2.6 C160.13333,6.200018 159.500003,10.966637 158.9,16.9 C158.299997,22.833363 157.733336,28.966635 157.2,35.3 C156.666664,41.633365 156.266668,47.699971 156,53.5 C155.733332,59.300029 155.6,63.799984 155.6,67 L155.6,68.5 C155.6,69.100003 155.566667,70.633321 155.5,73.1 C155.433333,75.566679 155.366667,79.399974 155.3,84.6 C155.233333,89.800026 155.133334,97.133286 155,106.6 C155,106.466666 155.299997,105.200012 155.9,102.8 C156.500003,100.399988 157.266662,97.400018 158.2,93.8 C159.133338,90.199982 160.233327,86.333354 161.5,82.2 C162.766673,78.066646 164.099993,74.233351 165.5,70.7 C166.900007,67.166649 168.333326,64.233345 169.8,61.9 C171.266674,59.566655 172.66666,58.4 174,58.4 C175.466674,58.4 177.499987,58.699997 180.1,59.3 C182.700013,59.900003 184.33333,60.933326 185,62.4 C185.533336,64.000008 186.099997,65.13333 186.7,65.8 C187.300003,66.46667 187.833331,66.999998 188.3,67.4 C188.766669,67.800002 189.166665,68.199998 189.5,68.6 C189.833335,69.000002 190,69.599996 190,70.4 C189.866666,70.800002 189.566669,72.133322 189.1,74.4 C188.633331,76.666678 188.166669,79.499983 187.7,82.9 C187.233331,86.300017 186.800002,90.033313 186.4,94.1 C185.999998,98.166687 185.8,102.19998 185.8,106.2 C185.8,111.53336 186.266662,116.133314 187.2,120 C188.133338,123.866686 189.93332,125.8 192.6,125.8 C195.26668,125.8 197.466658,125.000008 199.2,123.4 C200.933342,121.799992 202.366661,119.800012 203.5,117.4 C204.633339,114.999988 205.499997,112.433347 206.1,109.7 C206.700003,106.966653 207.199998,104.533344 207.6,102.4 C208.26667,99.599986 209.26666,98.2 210.6,98.2 C212.066674,98.2 213.099997,98.733328 213.7,99.8 C214.300003,100.866672 214.6,102.266658 214.6,104 L214.4,106.6 Z M271.8,77.8 C272.333336,76.866662 273.26666,76.4 274.6,76.4 C275.26667,76.4 275.733332,76.799996 276,77.6 C276.266668,78.400004 276.4,79.066664 276.4,79.6 C276.266666,83.733354 275.366675,87.433317 273.7,90.7 C272.033325,93.966683 270.266676,96.799988 268.4,99.2 C267.333328,100.666674 266.166673,101.999994 264.9,103.2 C263.633327,104.400006 262.33334,105.533328 261,106.6 C260.866666,108.866678 260.766667,110.433329 260.7,111.3 C260.633333,112.166671 260.533334,112.866664 260.4,113.4 C260.133332,115.40001 259.466672,117.933318 258.4,121 C257.333328,124.066682 255.833343,127.066652 253.9,130 C251.966657,132.933348 249.633347,135.433323 246.9,137.5 C244.166653,139.566677 241.000018,140.6 237.4,140.6 C236.199994,140.6 234.833341,140.466668 233.3,140.2 C231.766659,139.933332 230.200008,139.566669 228.6,139.1 C226.999992,138.633331 225.466674,138.100003 224,137.5 C222.533326,136.899997 221.266672,136.26667 220.2,135.6 C216.86665,133.733324 214.133344,131.533346 212,129 C209.866656,126.466654 208.233339,123.766681 207.1,120.9 C205.966661,118.033319 205.200002,115.100015 204.8,112.1 C204.399998,109.099985 204.2,106.200014 204.2,103.4 C204.2,98.599976 204.699995,93.733358 205.7,88.8 C206.700005,83.866642 207.933326,79.133356 209.4,74.6 C210.866674,70.066644 212.533324,66.000018 214.4,62.4 C216.266676,58.799982 218.066658,56.00001 219.8,54 C221.533342,52.133324 223.466656,50.833337 225.6,50.1 C227.733344,49.366663 229.666658,49 231.4,49 C233.533344,49 235.666656,49.533328 237.8,50.6 C239.933344,51.666672 241.99999,52.999992 244,54.6 C246.00001,56.200008 247.966657,58.033323 249.9,60.1 C251.833343,62.166677 253.666658,64.19999 255.4,66.2 C256.73334,67.666674 257.73333,70.033317 258.4,73.3 C259.06667,76.566683 259.599998,79.86665 260,83.2 C260.266668,85.066676 260.466666,87.066656 260.6,89.2 C260.733334,91.333344 260.8,93.533322 260.8,95.8 C262.80001,94.199992 264.399994,92.500009 265.6,90.7 C266.800006,88.899991 267.766663,87.200008 268.5,85.6 C269.233337,83.999992 269.833331,82.500007 270.3,81.1 C270.766669,79.699993 271.266664,78.600004 271.8,77.8 Z M249.2,95 C249.2,94.466664 249.166667,93.266676 249.1,91.4 C249.033333,89.533324 248.900001,87.333346 248.7,84.8 C248.499999,82.266654 248.166669,79.633347 247.7,76.9 C247.233331,74.166653 246.566671,71.666678 245.7,69.4 C244.833329,67.133322 243.73334,65.233341 242.4,63.7 C241.06666,62.166659 239.40001,61.4 237.4,61.4 C235.39999,61.4 233.466676,62.199992 231.6,63.8 C229.733324,65.400008 228.066674,67.466654 226.6,70 C225.133326,72.533346 223.966671,75.399984 223.1,78.6 C222.233329,81.800016 221.8,84.933318 221.8,88 C221.8,93.33336 222.866656,97.233321 225,99.7 C227.133344,102.166679 230.799974,103.4 236,103.4 C239.866686,103.4 243.033321,102.800006 245.5,101.6 C247.966679,100.399994 249.2,99.46667 249.2,98.8 L249.2,95 Z M248.2,111.4 C246.599992,112.466672 244.400014,113.266664 241.6,113.8 C238.799986,114.333336 236.466676,114.6 234.6,114.6 C230.999982,114.6 228.233343,114.333336 226.3,113.8 C224.366657,113.266664 222.266678,112.200008 220,110.6 L219.8,114.8 C219.8,116.266674 219.999998,117.799992 220.4,119.4 C220.800002,121.000008 221.433329,122.46666 222.3,123.8 C223.166671,125.13334 224.399992,126.233329 226,127.1 C227.600008,127.966671 229.599988,128.4 232,128.4 C234.933348,128.4 237.433323,127.833339 239.5,126.7 C241.566677,125.566661 243.233327,124.133342 244.5,122.4 C245.766673,120.666658 246.699997,118.80001 247.3,116.8 C247.900003,114.79999 248.2,113.000008 248.2,111.4 Z M270,98.8 C270.133334,91.999966 270.333332,85.066702 270.6,78 C270.866668,70.933298 271.133332,64.40003 271.4,58.4 C271.4,57.333328 270.333344,56.600002 268.2,56.2 C266.066656,55.799998 263.66668,55.400002 261,55 C258.33332,54.599998 255.933344,53.966671 253.8,53.1 C251.666656,52.233329 250.6,50.80001 250.6,48.8 C250.6,47.066658 252.333316,46.066668 255.8,45.8 C259.266684,45.533332 264.399966,45.4 271.2,45.4 C271.733336,45.4 272.099999,44.600008 272.3,43 C272.500001,41.399992 272.633333,39.366679 272.7,36.9 C272.766667,34.433321 272.833333,31.800014 272.9,29 C272.966667,26.199986 273.066666,23.566679 273.2,21.1 C273.333334,18.633321 273.566665,16.600008 273.9,15 C274.233335,13.399992 274.666664,12.6 275.2,12.6 C275.86667,12.6 277.066658,12.733332 278.8,13 C280.533342,13.266668 282.333324,13.633331 284.2,14.1 C286.066676,14.566669 287.699993,15.13333 289.1,15.8 C290.500007,16.46667 291.2,17.199996 291.2,18 L289,44 C289,44.800004 289.699993,45.366665 291.1,45.7 C292.500007,46.033335 294.299989,46.233333 296.5,46.3 C298.700011,46.366667 301.033321,46.4 303.5,46.4 C305.966679,46.4 308.299989,46.599998 310.5,47 C312.700011,47.400002 314.499993,48.033329 315.9,48.9 C317.300007,49.766671 318,51.066658 318,52.8 C318,53.066668 317.866668,53.499997 317.6,54.1 C317.333332,54.700003 317.000002,55 316.6,55 C316.333332,55 315.966669,54.800002 315.5,54.4 C315.033331,53.999998 313.80001,53.8 311.8,53.8 C311.266664,53.8 309.800012,53.866666 307.4,54 C304.999988,54.133334 302.46668,54.333332 299.8,54.6 C297.13332,54.866668 294.700011,55.166665 292.5,55.5 C290.299989,55.833335 289.066668,56.266664 288.8,56.8 C288.666666,57.066668 288.500001,58.633319 288.3,61.5 C288.099999,64.366681 287.900001,68.13331 287.7,72.8 C287.499999,77.46669 287.333334,82.833303 287.2,88.9 C287.066666,94.966697 287,101.3333 287,108 C287,110.533346 287.133332,112.999988 287.4,115.4 C287.666668,117.800012 288.066664,119.966657 288.6,121.9 C289.133336,123.833343 289.833329,125.399994 290.7,126.6 C291.566671,127.800006 292.599994,128.4 293.8,128.4 C295.533342,128.4 297.133326,127.666674 298.6,126.2 C300.066674,124.733326 301.399994,122.733346 302.6,120.2 C303.800006,117.666654 304.866662,114.800016 305.8,111.6 C306.733338,108.399984 307.53333,105.13335 308.2,101.8 C308.600002,99.79999 309.066664,98.366671 309.6,97.5 C310.133336,96.633329 310.933328,96.2 312,96.2 C312.933338,96.2 313.766663,96.499997 314.5,97.1 C315.233337,97.700003 315.6,99.066656 315.6,101.2 C315.6,102.53334 315.533334,103.399998 315.4,103.8 C314.999998,106.200012 314.233339,109.499979 313.1,113.7 C311.966661,117.900021 310.433343,122.033313 308.5,126.1 C306.566657,130.166687 304.200014,133.733318 301.4,136.8 C298.599986,139.866682 295.333352,141.4 291.6,141.4 C287.999982,141.4 284.86668,140.366677 282.2,138.3 C279.53332,136.233323 277.300009,133.366685 275.5,129.7 C273.699991,126.033315 272.333338,121.700025 271.4,116.7 C270.466662,111.699975 270,106.333362 270,100.6 L270,98.8 Z M376.2,77.8 C376.733336,76.866662 377.66666,76.4 379,76.4 C379.66667,76.4 380.133332,76.799996 380.4,77.6 C380.666668,78.400004 380.8,79.066664 380.8,79.6 C380.666666,83.733354 379.766675,87.433317 378.1,90.7 C376.433325,93.966683 374.666676,96.799988 372.8,99.2 C371.733328,100.666674 370.566673,101.999994 369.3,103.2 C368.033327,104.400006 366.73334,105.533328 365.4,106.6 C365.266666,108.866678 365.166667,110.433329 365.1,111.3 C365.033333,112.166671 364.933334,112.866664 364.8,113.4 C364.533332,115.40001 363.866672,117.933318 362.8,121 C361.733328,124.066682 360.233343,127.066652 358.3,130 C356.366657,132.933348 354.033347,135.433323 351.3,137.5 C348.566653,139.566677 345.400018,140.6 341.8,140.6 C340.599994,140.6 339.233341,140.466668 337.7,140.2 C336.166659,139.933332 334.600008,139.566669 333,139.1 C331.399992,138.633331 329.866674,138.100003 328.4,137.5 C326.933326,136.899997 325.666672,136.26667 324.6,135.6 C321.26665,133.733324 318.533344,131.533346 316.4,129 C314.266656,126.466654 312.633339,123.766681 311.5,120.9 C310.366661,118.033319 309.600002,115.100015 309.2,112.1 C308.799998,109.099985 308.6,106.200014 308.6,103.4 C308.6,98.599976 309.099995,93.733358 310.1,88.8 C311.100005,83.866642 312.333326,79.133356 313.8,74.6 C315.266674,70.066644 316.933324,66.000018 318.8,62.4 C320.666676,58.799982 322.466658,56.00001 324.2,54 C325.933342,52.133324 327.866656,50.833337 330,50.1 C332.133344,49.366663 334.066658,49 335.8,49 C337.933344,49 340.066656,49.533328 342.2,50.6 C344.333344,51.666672 346.39999,52.999992 348.4,54.6 C350.40001,56.200008 352.366657,58.033323 354.3,60.1 C356.233343,62.166677 358.066658,64.19999 359.8,66.2 C361.13334,67.666674 362.13333,70.033317 362.8,73.3 C363.46667,76.566683 363.999998,79.86665 364.4,83.2 C364.666668,85.066676 364.866666,87.066656 365,89.2 C365.133334,91.333344 365.2,93.533322 365.2,95.8 C367.20001,94.199992 368.799994,92.500009 370,90.7 C371.200006,88.899991 372.166663,87.200008 372.9,85.6 C373.633337,83.999992 374.233331,82.500007 374.7,81.1 C375.166669,79.699993 375.666664,78.600004 376.2,77.8 Z M353.6,95 C353.6,94.466664 353.566667,93.266676 353.5,91.4 C353.433333,89.533324 353.300001,87.333346 353.1,84.8 C352.899999,82.266654 352.566669,79.633347 352.1,76.9 C351.633331,74.166653 350.966671,71.666678 350.1,69.4 C349.233329,67.133322 348.13334,65.233341 346.8,63.7 C345.46666,62.166659 343.80001,61.4 341.8,61.4 C339.79999,61.4 337.866676,62.199992 336,63.8 C334.133324,65.400008 332.466674,67.466654 331,70 C329.533326,72.533346 328.366671,75.399984 327.5,78.6 C326.633329,81.800016 326.2,84.933318 326.2,88 C326.2,93.33336 327.266656,97.233321 329.4,99.7 C331.533344,102.166679 335.199974,103.4 340.4,103.4 C344.266686,103.4 347.433321,102.800006 349.9,101.6 C352.366679,100.399994 353.6,99.46667 353.6,98.8 L353.6,95 Z M352.6,111.4 C350.999992,112.466672 348.800014,113.266664 346,113.8 C343.199986,114.333336 340.866676,114.6 339,114.6 C335.399982,114.6 332.633343,114.333336 330.7,113.8 C328.766657,113.266664 326.666678,112.200008 324.4,110.6 L324.2,114.8 C324.2,116.266674 324.399998,117.799992 324.8,119.4 C325.200002,121.000008 325.833329,122.46666 326.7,123.8 C327.566671,125.13334 328.799992,126.233329 330.4,127.1 C332.000008,127.966671 333.999988,128.4 336.4,128.4 C339.333348,128.4 341.833323,127.833339 343.9,126.7 C345.966677,125.566661 347.633327,124.133342 348.9,122.4 C350.166673,120.666658 351.099997,118.80001 351.7,116.8 C352.300003,114.79999 352.6,113.000008 352.6,111.4 Z M441.8,140.2 C441.8,141.53334 441.200006,142.466664 440,143 C438.799994,143.533336 437.666672,143.8 436.6,143.8 L432.6,143.4 C431.93333,143.4 431.6,143.799996 431.6,144.6 L431.4,147 C431.533334,150.600018 431.6,155.133306 431.6,160.6 L431.6,176.4 C431.6,181.73336 431.433335,186.966641 431.1,192.1 C430.766665,197.233359 430.000006,201.833313 428.8,205.9 C427.599994,209.966687 425.900011,213.233321 423.7,215.7 C421.499989,218.166679 418.466686,219.4 414.6,219.4 C411.26665,219.4 407.766685,219.233335 404.1,218.9 C400.433315,218.566665 397.100015,217.73334 394.1,216.4 C391.099985,215.06666 388.633343,213.100013 386.7,210.5 C384.766657,207.899987 383.8,204.400022 383.8,200 C383.8,195.599978 384.299995,191.100023 385.3,186.5 C386.300005,181.899977 387.733324,177.433355 389.6,173.1 C391.466676,168.766645 393.699987,164.633353 396.3,160.7 C398.900013,156.766647 401.733318,153.266682 404.8,150.2 C406.400008,148.599992 408.166657,146.966675 410.1,145.3 C412.033343,143.633325 413.733326,142.266672 415.2,141.2 L415.2,141 C415.466668,138.199986 415.666666,135.400014 415.8,132.6 C415.933334,129.799986 416,126.933348 416,124 C415.33333,125.200006 414.533338,126.833323 413.6,128.9 C412.666662,130.966677 411.566673,132.933324 410.3,134.8 C409.033327,136.666676 407.600008,138.299993 406,139.7 C404.399992,141.100007 402.60001,141.8 400.6,141.8 C399.533328,141.8 398.600004,141.600002 397.8,141.2 C396.999996,140.799998 395.866674,140.6 394.4,140.6 C390.666648,140.333332 387.566679,139.333342 385.1,137.6 C382.633321,135.866658 380.700007,133.466682 379.3,130.4 C377.899993,127.333318 376.933336,123.700021 376.4,119.5 C375.866664,115.299979 375.6,110.600026 375.6,105.4 C375.6,99.133302 375.966663,92.6667 376.7,86 C377.433337,79.3333 378.733324,73.233361 380.6,67.7 C382.466676,62.166639 384.966651,57.633351 388.1,54.1 C391.233349,50.566649 395.199976,48.8 400,48.8 C400.533336,48.8 401.233329,48.999998 402.1,49.4 C402.966671,49.800002 403.899995,50.233331 404.9,50.7 L407.9,52.1 C408.900005,52.566669 409.666664,52.866666 410.2,53 C412.86668,53.533336 415.333322,54.199996 417.6,55 C419.866678,55.800004 421.799992,56.833327 423.4,58.1 C425.000008,59.366673 426.266662,61.033323 427.2,63.1 C428.133338,65.166677 428.6,67.733318 428.6,70.8 C428.6,72.933344 428.433335,74.866658 428.1,76.6 C427.766665,78.333342 427.6,80.53332 427.6,83.2 C427.6,84.266672 427.999996,84.999998 428.8,85.4 C429.600004,85.800002 430.499995,86.133332 431.5,86.4 C432.500005,86.666668 433.399996,86.966665 434.2,87.3 C435.000004,87.633335 435.4,88.333328 435.4,89.4 C435.4,89.666668 435.100003,90.299995 434.5,91.3 C433.899997,92.300005 433.533334,92.933332 433.4,93.2 C432.999998,94.266672 432.666668,95.966655 432.4,98.3 C432.133332,100.633345 431.933334,103.166653 431.8,105.9 C431.666666,108.633347 431.566667,111.433319 431.5,114.3 C431.433333,117.166681 431.4,119.733322 431.4,122 L431.4,128.9 C431.4,131.766681 431.466666,134.133324 431.6,136 L432.4,136 C432.666668,136 432.933332,135.966667 433.2,135.9 C433.466668,135.833333 433.666666,135.8 433.8,135.8 C435.000006,135.8 436.633323,136.166663 438.7,136.9 C440.766677,137.633337 441.8,138.733326 441.8,140.2 Z M416.2,78.4 C416.2,76.933326 416.066668,75.266676 415.8,73.4 C415.533332,71.533324 415.06667,69.766675 414.4,68.1 C413.73333,66.433325 412.766673,65.033339 411.5,63.9 C410.233327,62.766661 408.666676,62.2 406.8,62.2 C404.266654,62.2 401.900011,63.19999 399.7,65.2 C397.499989,67.20001 395.566675,70.033315 393.9,73.7 C392.233325,77.366685 390.900005,81.833307 389.9,87.1 C388.899995,92.366693 388.4,98.3333 388.4,105 C388.4,107.800014 388.499999,110.699985 388.7,113.7 C388.900001,116.700015 389.233331,119.399988 389.7,121.8 C390.166669,124.200012 390.899995,126.199992 391.9,127.8 C392.900005,129.400008 394.199992,130.2 395.8,130.2 C398.600014,130.2 401.066656,129.000012 403.2,126.6 C405.333344,124.199988 407.099993,121.233351 408.5,117.7 C409.900007,114.166649 410.966663,110.500019 411.7,106.7 C412.433337,102.899981 412.866666,99.600014 413,96.8 C413.133334,92.933314 413.333332,90.300007 413.6,88.9 C413.866668,87.499993 414.133332,86.600002 414.4,86.2 C415.200004,85.133328 415.699999,83.866674 415.9,82.4 C416.100001,80.933326 416.2,79.600006 416.2,78.4 Z M415.4,148 C412.333318,150.133344 409.433347,153.133314 406.7,157 C403.966653,160.866686 401.60001,165.066644 399.6,169.6 C397.59999,174.133356 396.033339,178.73331 394.9,183.4 C393.766661,188.06669 393.2,192.266648 393.2,196 C393.2,197.33334 393.333332,198.799992 393.6,200.4 C393.866668,202.000008 394.299997,203.499993 394.9,204.9 C395.500003,206.300007 396.366661,207.466662 397.5,208.4 C398.633339,209.333338 399.999992,209.8 401.6,209.8 C404.400014,209.8 406.699991,208.633345 408.5,206.3 C410.300009,203.966655 411.699995,201.200016 412.7,198 C413.700005,194.799984 414.366665,191.53335 414.7,188.2 C415.033335,184.86665 415.2,182.20001 415.2,180.2 L415.2,178.4 C415.2,177.599996 415.233333,176.066678 415.3,173.8 C415.366667,171.533322 415.4,168.366687 415.4,164.3 L415.4,148 Z M501.6,106.8 C501.6,107.733338 501.300003,109.966649 500.7,113.5 C500.099997,117.033351 499.033341,120.766647 497.5,124.7 C495.966659,128.633353 493.900013,132.133318 491.3,135.2 C488.699987,138.266682 485.40002,139.8 481.4,139.8 C477.133312,139.8 473.733346,138.300015 471.2,135.3 C468.666654,132.299985 466.73334,128.700021 465.4,124.5 C464.06666,120.299979 463.200002,115.900023 462.8,111.3 C462.399998,106.699977 462.2,102.866682 462.2,99.8 C462.2,96.333316 462.399998,92.833351 462.8,89.3 C463.200002,85.766649 463.466666,82.266684 463.6,78.8 C463.6,77.733328 463.066672,77.066668 462,76.8 C460.933328,76.533332 459.933338,76.4 459,76.4 C457.399992,76.4 456.400002,76.599998 456,77 C455.599998,77.400002 455.333334,77.866664 455.2,78.4 L454.4,84.8 C453.866664,89.066688 453.300003,93.166647 452.7,97.1 C452.099997,101.033353 451.433337,104.499985 450.7,107.5 C449.966663,110.500015 449.100005,112.899991 448.1,114.7 C447.099995,116.500009 445.93334,117.4 444.6,117.4 L444.4,117.4 C443.866664,117.4 443.366669,117.266668 442.9,117 C442.433331,116.733332 442.2,116.066672 442.2,115 C442.2,114.466664 442.333332,113.666672 442.6,112.6 C443.666672,107.93331 444.333332,104.066682 444.6,101 C444.866668,97.933318 445.066666,95.200012 445.2,92.8 L445.2,91.4 C445.2,90.73333 445.233333,89.933338 445.3,89 C445.366667,88.066662 445.4,86.93334 445.4,85.6 L445.4,75.8 C445.4,74.199992 445.266668,72.466676 445,70.6 L444.4,58.8 C444.4,57.999996 444.73333,57.26667 445.4,56.6 C446.06667,55.93333 446.933328,55.333336 448,54.8 C449.066672,54.266664 450.199994,53.866668 451.4,53.6 C452.600006,53.333332 453.666662,53.2 454.6,53.2 C456.866678,53.2 458,54.666652 458,57.6 L458,58.6 L457.8,63 L457.8,64.2 C457.8,65.133338 457.999998,65.699999 458.4,65.9 C458.800002,66.100001 459.599994,66.333332 460.8,66.6 L461.4,66.6 C462.466672,66.733334 464.199988,66.866666 466.6,67 C469.000012,67.133334 471.399988,67.399998 473.8,67.8 C476.200012,68.200002 478.299991,68.833329 480.1,69.7 C481.900009,70.566671 482.8,71.799992 482.8,73.4 C482.8,73.933336 482.666668,74.699995 482.4,75.7 C482.133332,76.700005 481.800002,77.699995 481.4,78.7 C480.999998,79.700005 480.666668,80.599996 480.4,81.4 C480.133332,82.200004 480,82.733332 480,83 C477.599988,92.200046 476.4,101.79995 476.4,111.8 C476.4,112.600004 476.466666,114.066656 476.6,116.2 C476.733334,118.333344 476.999998,120.533322 477.4,122.8 C477.800002,125.066678 478.399996,127.066658 479.2,128.8 C480.000004,130.533342 480.999994,131.4 482.2,131.4 C484.20001,131.4 485.999992,130.166679 487.6,127.7 C489.200008,125.233321 490.599994,122.366683 491.8,119.1 C493.000006,115.833317 493.966663,112.53335 494.7,109.2 C495.433337,105.86665 495.933332,103.400008 496.2,101.8 C496.466668,100.333326 496.899997,99.433335 497.5,99.1 C498.100003,98.766665 498.666664,98.6 499.2,98.6 C501.066676,98.6 502,99.799988 502,102.2 C502,102.466668 501.966667,103.166661 501.9,104.3 C501.833333,105.433339 501.733334,106.266664 501.6,106.8 Z M575,113.2 C574.733332,115.066676 574.066672,117.266654 573,119.8 C571.933328,122.333346 570.566675,124.766655 568.9,127.1 C567.233325,129.433345 565.300011,131.399992 563.1,133 C560.899989,134.600008 558.46668,135.4 555.8,135.4 C551.79998,135.4 548.300015,133.866682 545.3,130.8 C542.299985,127.733318 540.46667,123.400028 539.8,117.8 C538.999996,119.933344 538.066672,122.399986 537,125.2 C535.933328,128.000014 534.600008,130.599988 533,133 C531.399992,135.400012 529.566677,137.433325 527.5,139.1 C525.433323,140.766675 523.000014,141.6 520.2,141.6 C519.399996,141.6 518.800002,141.533334 518.4,141.4 C517.999998,141.266666 517.566669,141.100001 517.1,140.9 C516.633331,140.699999 516.100003,140.533334 515.5,140.4 C514.899997,140.266666 514.066672,140.2 513,140.2 C509.799984,140.2 507.100011,139.166677 504.9,137.1 C502.699989,135.033323 500.93334,132.400016 499.6,129.2 C498.26666,125.999984 497.300003,122.500019 496.7,118.7 C496.099997,114.899981 495.8,111.33335 495.8,108 C495.8,99.99996 496.233329,92.400036 497.1,85.2 C497.966671,77.999964 499.39999,71.633361 501.4,66.1 C503.40001,60.566639 505.999984,56.166683 509.2,52.9 C512.400016,49.633317 516.266644,48 520.8,48 C523.46668,48 525.499993,48.233331 526.9,48.7 C528.300007,49.166669 529.599994,49.699997 530.8,50.3 C532.000006,50.900003 533.299993,51.53333 534.7,52.2 C536.100007,52.86667 538.066654,53.399998 540.6,53.8 C543.400014,55.400008 545.366661,57.299989 546.5,59.5 C547.633339,61.700011 548.366665,64.066654 548.7,66.6 C549.033335,69.133346 549.133334,71.766653 549,74.5 C548.866666,77.233347 548.999998,79.93332 549.4,82.6 C549.4,82.733334 549.699997,82.933332 550.3,83.2 C550.900003,83.466668 551.599996,83.766665 552.4,84.1 C553.200004,84.433335 553.899997,84.899997 554.5,85.5 C555.100003,86.100003 555.4,86.866662 555.4,87.8 L555.4,88.6 C554.06666,92.066684 553.266668,95.13332 553,97.8 C552.733332,100.46668 552.6,103.666648 552.6,107.4 C552.6,109.266676 552.699999,111.299989 552.9,113.5 C553.100001,115.700011 553.433331,117.766657 553.9,119.7 C554.366669,121.633343 555.066662,123.233327 556,124.5 C556.933338,125.766673 558.133326,126.4 559.6,126.4 C561.200008,126.4 562.633327,125.600008 563.9,124 C565.166673,122.399992 566.233329,120.566677 567.1,118.5 C567.966671,116.433323 568.699997,114.333344 569.3,112.2 C569.900003,110.066656 570.266666,108.466672 570.4,107.4 C570.666668,105.799992 571.333328,105 572.4,105 C573.06667,105 573.699997,105.366663 574.3,106.1 C574.900003,106.833337 575.2,108.133324 575.2,110 L575.2,111.5 C575.2,111.966669 575.133334,112.53333 575,113.2 Z M538,80.8 C538,79.333326 537.866668,77.60001 537.6,75.6 C537.333332,73.59999 536.86667,71.733342 536.2,70 C535.53333,68.266658 534.53334,66.800006 533.2,65.6 C531.86666,64.399994 530.066678,63.8 527.8,63.8 C524.066648,63.8 521.033345,65.499983 518.7,68.9 C516.366655,72.300017 514.53334,76.299977 513.2,80.9 C511.86666,85.500023 511.000002,90.233309 510.6,95.1 C510.199998,99.966691 510,103.799986 510,106.6 C510,108.733344 510.099999,111.299985 510.3,114.3 C510.500001,117.300015 510.866664,120.13332 511.4,122.8 C511.933336,125.46668 512.699995,127.733324 513.7,129.6 C514.700005,131.466676 515.999992,132.4 517.6,132.4 C521.466686,132.4 524.433323,130.900015 526.5,127.9 C528.566677,124.899985 530.133328,121.166689 531.2,116.7 C532.266672,112.233311 533.033331,107.433359 533.5,102.3 C533.966669,97.166641 534.399998,92.466688 534.8,88.2 C535.066668,85.933322 535.666662,84.500003 536.6,83.9 C537.533338,83.299997 538,82.866668 538,82.6 L538,80.8 Z M636.2,85.8 C634.333324,89.400018 632.600008,93.19998 631,97.2 C629.399992,101.20002 628.200004,104.333322 627.4,106.6 C627.266666,107.26667 626.900003,108.666656 626.3,110.8 C625.699997,112.933344 625.033337,115.299987 624.3,117.9 C623.566663,120.500013 622.933336,123.066654 622.4,125.6 C621.866664,128.133346 621.6,130.199992 621.6,131.8 C621.6,132.46667 621.000006,133.066664 619.8,133.6 C618.599994,134.133336 617.066676,134.4 615.2,134.4 C612.266652,134.4 609.933342,134.000004 608.2,133.2 C606.466658,132.399996 605.166671,131.100009 604.3,129.3 C603.433329,127.499991 602.900001,125.133348 602.7,122.2 C602.499999,119.266652 602.4,115.733354 602.4,111.6 L602.4,96.6 C602.4,95.533328 602.366667,94.466672 602.3,93.4 C602.233333,92.333328 602.000002,91.666668 601.6,91.4 C600.93333,91.666668 600.100005,93.399984 599.1,96.6 C598.099995,99.800016 597.166671,103.699977 596.3,108.3 C595.433329,112.900023 594.66667,117.733308 594,122.8 C593.33333,127.866692 593,132.39998 593,136.4 C593,137.866674 592.233341,138.733332 590.7,139 C589.166659,139.266668 587.466676,139.4 585.6,139.4 C585.066664,139.4 584.166673,139.300001 582.9,139.1 C581.633327,138.899999 580.366673,138.666668 579.1,138.4 C577.833327,138.133332 576.666672,137.766669 575.6,137.3 C574.533328,136.833331 573.866668,136.26667 573.6,135.6 C572.93333,133.866658 572.433335,131.00002 572.1,127 C571.766665,122.99998 571.6,116.800042 571.6,108.4 C571.6,103.466642 571.699999,97.733366 571.9,91.2 C572.100001,84.666634 572.333332,77.000044 572.6,68.2 C572.6,66.999994 572.533334,65.433343 572.4,63.5 C572.266666,61.566657 572.2,60.466668 572.2,60.2 C572.2,59.133328 572.633329,58.500001 573.5,58.3 C574.366671,58.099999 574.999998,58 575.4,58 C576.333338,58 577.433327,58.099999 578.7,58.3 C579.966673,58.500001 581.233327,58.733332 582.5,59 C583.766673,59.266668 584.933328,59.566665 586,59.9 C587.066672,60.233335 587.799998,60.533332 588.2,60.8 L588.2,109 C588.86667,106.33332 589.633329,103.233351 590.5,99.7 C591.366671,96.166649 592.366661,92.666684 593.5,89.2 C594.633339,85.733316 595.86666,82.533348 597.2,79.6 C598.53334,76.666652 599.933326,74.53334 601.4,73.2 C601.933336,72.799998 602.933326,72.500001 604.4,72.3 C605.866674,72.099999 607.066662,72 608,72 C608.66667,72 609.499995,72.099999 610.5,72.3 C611.500005,72.500001 612.466662,72.799998 613.4,73.2 C614.333338,73.600002 615.166663,74.099997 615.9,74.7 C616.633337,75.300003 617.066666,75.999996 617.2,76.8 L617.2,111 C617.2,111.800004 617.333332,112.2 617.6,112.2 C617.866668,112.2 618.633327,110.400018 619.9,106.8 C621.166673,103.199982 622.666658,98.933358 624.4,94 C626.133342,89.066642 627.99999,84.000026 630,78.8 C632.00001,73.599974 633.799992,69.466682 635.4,66.4 C635.666668,65.866664 636.566659,65.566667 638.1,65.5 C639.633341,65.433333 640.999994,65.4 642.2,65.4 C643.133338,65.4 644.399992,65.699997 646,66.3 C647.600008,66.900003 649.166659,67.733328 650.7,68.8 C652.233341,69.866672 653.566661,71.06666 654.7,72.4 C655.833339,73.73334 656.4,75.133326 656.4,76.6 C656.4,76.866668 656.000004,77.633327 655.2,78.9 C654.399996,80.166673 653.866668,81.46666 653.6,82.8 C652.666662,86.533352 652.033335,90.199982 651.7,93.8 C651.366665,97.400018 651.2,101.999972 651.2,107.6 C651.2,110.000012 651.299999,112.399988 651.5,114.8 C651.700001,117.200012 652.033331,119.366657 652.5,121.3 C652.966669,123.233343 653.599996,124.799994 654.4,126 C655.200004,127.200006 656.26666,127.8 657.6,127.8 C659.466676,127.8 661.133326,127.166673 662.6,125.9 C664.066674,124.633327 665.333328,122.933344 666.4,120.8 C667.466672,118.666656 668.399996,116.166681 669.2,113.3 C670.000004,110.433319 670.666664,107.466682 671.2,104.4 C671.86667,101.199984 673.066658,99.6 674.8,99.6 C675.866672,99.6 676.566665,99.866664 676.9,100.4 C677.233335,100.933336 677.4,102.133324 677.4,104 C677.4,105.066672 677.333334,105.799998 677.2,106.2 C677.066666,107.933342 676.500005,110.633315 675.5,114.3 C674.499995,117.966685 673.100009,121.633315 671.3,125.3 C669.499991,128.966685 667.26668,132.166653 664.6,134.9 C661.93332,137.633347 658.866684,139 655.4,139 C651.266646,139 647.86668,138.033343 645.2,136.1 C642.53332,134.166657 640.466674,131.566683 639,128.3 C637.533326,125.033317 636.500003,121.266688 635.9,117 C635.299997,112.733312 635,108.26669 635,103.6 L635,102.2 L636.2,85.8 Z M758,38.6 C758,42.866688 756.500015,47.566641 753.5,52.7 C750.499985,57.833359 746.733356,62.999974 742.2,68.2 C737.666644,73.400026 732.766693,78.499975 727.5,83.5 C722.233307,88.500025 717.333356,93.166645 712.8,97.5 C708.266644,101.833355 704.500015,105.599984 701.5,108.8 C698.499985,112.000016 697,114.399992 697,116 C697,116.800004 697.933324,117.333332 699.8,117.6 C701.666676,117.866668 702.999996,118 703.8,118 L736.4,118 C739.200014,118 741.499991,118.099999 743.3,118.3 C745.100009,118.500001 746.566661,119.066662 747.7,120 C748.833339,120.933338 749.633331,122.333324 750.1,124.2 C750.566669,126.066676 750.8,128.733316 750.8,132.2 C750.8,133.666674 750.46667,134.4 749.8,134.4 C749.533332,134.4 748.966671,134.300001 748.1,134.1 C747.233329,133.899999 746.200006,133.8 745,133.8 C743.133324,133.8 741.53334,133.833333 740.2,133.9 C738.86666,133.966667 737.633339,134 736.5,134 C735.366661,134 734.200006,134.033333 733,134.1 C731.799994,134.166667 730.400008,134.2 728.8,134.2 C723.066638,134.333334 717.000032,134.533332 710.6,134.8 C704.199968,135.066668 698.133362,135.2 692.4,135.2 C690.266656,135.2 687.966679,135.066668 685.5,134.8 C683.033321,134.533332 680.733344,133.933338 678.6,133 C676.466656,132.066662 674.700007,130.766675 673.3,129.1 C671.899993,127.433325 671.2,125.200014 671.2,122.4 C671.2,121.73333 671.433331,120.633341 671.9,119.1 C672.366669,117.566659 672.93333,115.966675 673.6,114.3 C674.26667,112.633325 674.93333,111.066674 675.6,109.6 C676.26667,108.133326 676.866664,107.133336 677.4,106.6 C679.533344,104.466656 681.733322,102.433343 684,100.5 C686.266678,98.566657 688.466656,96.666676 690.6,94.8 C693.000012,92.666656 695.899983,90.100015 699.3,87.1 C702.700017,84.099985 706.266648,80.800018 710,77.2 C713.733352,73.599982 717.466648,69.80002 721.2,65.8 C724.933352,61.79998 728.266652,57.700021 731.2,53.5 C734.133348,49.299979 736.499991,45.133354 738.3,41 C740.100009,36.866646 741,32.933352 741,29.2 C741,24.799978 739.66668,21.500011 737,19.3 C734.33332,17.099989 730.933354,16 726.8,16 C720.79997,16.133334 716.100017,17.19999 712.7,19.2 C709.299983,21.20001 706.666676,23.633319 704.8,26.5 C702.933324,29.366681 701.533338,32.433317 700.6,35.7 C699.666662,38.966683 698.633339,42.033319 697.5,44.9 C696.366661,47.766681 694.866676,50.133324 693,52 C691.133324,53.866676 688.266686,54.8 684.4,54.8 C681.466652,54.8 679.400006,54.000008 678.2,52.4 C676.999994,50.799992 676.4,48.66668 676.4,46 C676.4,40.799974 677.799986,35.733358 680.6,30.8 C683.400014,25.866642 687.066644,21.466686 691.6,17.6 C696.133356,13.733314 701.266638,10.633345 707,8.3 C712.733362,5.966655 718.533304,4.8 724.4,4.8 C726.933346,4.8 730.099981,5.79999 733.9,7.8 C737.700019,9.80001 741.399982,12.399984 745,15.6 C748.600018,18.800016 751.666654,22.433313 754.2,26.5 C756.733346,30.566687 758,34.59998 758,38.6 Z"/>
</svg>
